<?xml version="1.0" standalone="no"?>
<!DOCTYPE svg PUBLIC "-//W3C//DTD SVG 20010904//EN"
 "http://www.w3.org/TR/2001/REC-SVG-20010904/DTD/svg10.dtd">
<svg version="1.0" xmlns="http://www.w3.org/2000/svg"
 width="200.000000pt" height="200.000000pt" viewBox="0 0 200.000000 200.000000"
 preserveAspectRatio="xMidYMid meet">

<g transform="translate(0.000000,200.000000) scale(0.100000,-0.100000)"
fill="#000000" stroke="none">
<path d="M850 1849 c-69 -50 -191 -170 -184 -181 3 -4 82 -8 175 -8 l169 0 11
28 c6 15 13 42 16 60 9 51 22 38 25 -25 l3 -58 89 -3 c49 -2 93 1 98 6 5 5
-12 53 -43 115 l-51 107 -127 0 -126 -1 -55 -40z"/>
<path d="M558 1523 c-32 -39 -83 -174 -74 -198 8 -22 473 -22 502 0 25 19 58
19 74 0 10 -12 42 -15 165 -15 85 0 160 3 169 6 18 7 20 26 6 52 -5 9 -25 52
-45 95 l-36 77 -129 0 c-126 0 -129 0 -132 -22 -5 -34 -45 -37 -58 -4 l-10 26
-208 0 c-187 0 -210 -2 -224 -17z"/>
<path d="M437 1143 c-4 -3 -7 -53 -7 -109 0 -100 1 -104 25 -120 17 -11 24
-23 20 -34 -3 -10 -2 -36 3 -57 7 -32 6 -42 -6 -49 -13 -8 -13 -16 -2 -49 7
-22 17 -46 23 -52 7 -10 143 -13 618 -13 335 0 609 3 609 7 0 4 -10 28 -22 55
l-21 48 -281 2 -281 3 -5 46 c-3 26 -12 54 -20 64 -12 14 -12 18 1 26 8 5 123
9 256 9 133 0 244 4 247 9 7 11 -81 203 -97 213 -7 4 -106 8 -222 8 l-210 0
-15 -33 c-21 -45 -37 -41 -54 16 -5 16 -27 17 -279 17 -151 0 -277 -3 -280 -7z"/>
<path d="M80 581 l0 -29 95 -7 c52 -4 98 -12 101 -17 7 -12 -24 -48 -42 -48
-28 0 -24 -24 11 -77 50 -76 109 -138 179 -190 l58 -43 503 0 502 0 59 39 c74
49 117 88 188 174 53 63 66 87 49 87 -200 2 -313 12 -370 31 -43 15 -60 25
-51 30 7 5 103 9 214 9 111 0 235 3 277 6 76 7 77 7 77 35 l0 29 -925 0 -925
0 0 -29z"/>
</g>
</svg>
